<?xml version="1.0" standalone="no"?><!DOCTYPE svg PUBLIC "-//W3C//DTD SVG 1.1//EN" "http://www.w3.org/Graphics/SVG/1.1/DTD/svg11.dtd"><svg class="icon" width="200px" height="200.00px" viewBox="0 0 1024 1024" version="1.1" xmlns="http://www.w3.org/2000/svg"><path d="M725.043 291.711h-1.894v-44.503c0-25.566-20.831-46.397-46.397-46.397h-141.084v-148.657c0-13.257-10.415-23.671-23.671-23.671s-23.671 10.415-23.671 23.671v148.657h-140.135c-25.566 0-46.397 20.831-46.397 46.397v44.503h-1.894c-49.237 0-89.005 39.769-89.005 89.005v461.122c0 49.237 39.769 89.005 89.005 89.005h1.894v30.299c0 13.257 10.415 23.671 23.671 23.671s23.671-10.415 23.671-23.671v-30.299h326.668v30.299c0 13.257 10.415 23.671 23.671 23.671s23.671-10.415 23.671-23.671v-30.299h1.894c49.237 0 89.005-39.769 89.005-89.005v-461.122c-0.946-49.237-40.716-89.005-89.005-89.005zM349.139 248.154h326.668v43.556h-326.668v-43.556zM765.759 841.838c0 22.723-18.938 41.663-41.663 41.663h-425.141c-22.723 0-41.663-18.938-41.663-41.663v-461.122c0-22.723 18.938-41.663 41.663-41.663h425.141c22.723 0 41.663 18.938 41.663 41.663v461.122z" fill="#f4ea2a" /></svg>